<?xml version="1.0" encoding="UTF-8"?>
<svg xmlns="http://www.w3.org/2000/svg"
    width="83" height="18">
    <path d="M1,17 l0,-16 l16,0 l-8,8 l8,8 Z" fill="#3040b0" aria-description="K" />
    <path d="M19,17 m1,0 l0,-8 m0,4 a3,3,0,0,1,3,-3" stroke-linecap="butt" stroke-width="2" stroke="#101010" fill="none" aria-description="r" />
    <path d="M25,17 m7,-4 a3,3,0,0,0,-6,0 a3,3,0,0,0,6,0 m0-4 l0,8" stroke-linecap="butt" stroke-width="2" stroke="#101010" fill="none" aria-description="a" />
    <path d="M35,17 m3,0 l0,-8 a3,3,0,0,1,3,-3 m-6,7 l6,0" stroke-linecap="butt" stroke-width="2" stroke="#101010" fill="none" aria-description="f" />
    <path d="M43,17 m3,-12 l0,8 a3,3,0,0,0,3,3 m-6,-7 l6,0" stroke-linecap="butt" stroke-width="2" stroke="#101010" fill="none" aria-description="t" />
    <path d="M52,17 m7,-10 a3,3,0,1,0,-3,3 a3,3,0,1,1,-3,3" stroke-linecap="butt" stroke-width="2" stroke="#b05050" fill="none" aria-description="S" />
    <path d="M63,17 m7,-10 a3,3,0,0,0,-6,0 l0,6 a3,3,0,0,0,6,0 l0,-6 m-2.35,6.7 l2.65,2.65" stroke-linecap="butt" stroke-width="2" stroke="#b05050" fill="none" aria-description="Q" />
    <path d="M74,17 m1,-14 l0,14 m-1,-1 l8,0" stroke-linecap="butt" stroke-width="2" stroke="#b05050" fill="none" aria-description="L" />
</svg>
