<?xml version="1.0" encoding="UTF-8"?>
<svg xmlns="http://www.w3.org/2000/svg"
    width="40" height="40">
    <rect x="0" y="0" width="40" height="40" fill="#f8f8f8" />

    <path d="M1,39 l0,-38 l38,0 l-19,19 l19,19 Z" fill="#3080e0" aria-description="K" />
    <path d="M12,23 m1,0 l0,-8 m0,4 a3,3,0,0,1,3,-3" fill="none" stroke-width="2" stroke="#101010" stroke-linecap="butt" aria-description="r" />
    <path d="M17,23 m7,-4 a3,3,0,0,0,-6,0 a3,3,0,0,0,6,0 m0-4 l0,8" fill="none" stroke-width="2" stroke="#101010" stroke-linecap="butt" aria-description="a" />
    <path d="M26,23 m3,0 l0,-8 a3,3,0,0,1,3,-3 m-6,6 l6,0" fill="none" stroke-width="2" stroke="#101010" stroke-linecap="butt" aria-description="f" />
    <path d="M33,23 m3,-12 l0,8 a3,3,0,0,0,3,3 m-6,-6 l6,0" fill="none" stroke-width="2" stroke="#101010" stroke-linecap="butt" aria-description="t" />
    <g fill="none" stroke-width="2" stroke="#e06048" stroke-linecap="butt">
        <path d="M11,39 m7,-10 a3,3,0,1,0,-3,3 a3,3,0,1,1,-3,3" aria-description="S" />
        <path d="M21,39 m7,-10 a3,3,0,0,0,-6,0 l0,6 a3,3,0,0,0,6,0 l0,-6 m-2.5,6.4 l2.8,2.9" aria-description="Q" />
        <path d="M31,39 m1,-14 l0,14 m-1,-1 l8,0" aria-description="L" />
    </g>
</svg>
