<?xml version="1.0" encoding="UTF-8"?>
<svg xmlns="http://www.w3.org/2000/svg"
    width="72" height="18">
    <rect x="0" y="0" width="72" height="18" fill="#f8f8f8" />

    <path d="M1,17 l0,-16 l16,0 l-8,8 l8,8 Z" fill="#3080e0" aria-description="K" />
    <path d="M14,17 m1,0 l0,-8 m0,4 a3,3,0,0,1,3,-3" fill="none" stroke-width="2" stroke="#101010" stroke-linecap="butt" aria-description="r" />
    <path d="M19,17 m7,-4 a3,3,0,0,0,-6,0 a3,3,0,0,0,6,0 m0-4 l0,8" fill="none" stroke-width="2" stroke="#101010" stroke-linecap="butt" aria-description="a" />
    <path d="M28,17 m3,0 l0,-8 a3,3,0,0,1,3,-3 m-6,6 l6,0" fill="none" stroke-width="2" stroke="#101010" stroke-linecap="butt" aria-description="f" />
    <path d="M35,17 m3,-12 l0,8 a3,3,0,0,0,3,3 m-6,-6 l6,0" fill="none" stroke-width="2" stroke="#101010" stroke-linecap="butt" aria-description="t" />
    <g fill="none" stroke-width="2" stroke="#e06048" stroke-linecap="butt">
        <path d="M43,17 m7,-10 a3,3,0,1,0,-3,3 a3,3,0,1,1,-3,3" aria-description="S" />
        <path d="M53,17 m7,-10 a3,3,0,0,0,-6,0 l0,6 a3,3,0,0,0,6,0 l0,-6 m-2.5,6.4 l2.8,2.9" aria-description="Q" />
        <path d="M63,17 m1,-14 l0,14 m-1,-1 l8,0" aria-description="L" />
    </g>
</svg>
